<?xml version="1.0" encoding="utf-8"?>
<!-- Generator: Adobe Illustrator 25.4.1, SVG Export Plug-In . SVG Version: 6.00 Build 0)  -->
<svg version="1.1" id="Layer_1" xmlns="http://www.w3.org/2000/svg" xmlns:xlink="http://www.w3.org/1999/xlink" x="0px" y="0px"
	 viewBox="0 0 24 24" style="enable-background:new 0 0 24 24;" xml:space="preserve">
<style type="text/css">
	.st0{fill:none;}
</style>
<g>
	<polygon class="st0" points="13.9,4.5 13.9,8 17.4,8 	"/>
	<path d="M14.9,3h-11c-0.6,0-1,0.4-1,1v17c0,0.6,0.4,1,1,1h15c0.6,0,1-0.4,1-1V8L14.9,3z M13.9,4.5L17.4,8h-3.5V4.5z M11.6,16.9
		c-1,0.5-2.1,0.8-3.2,0.8c-1.5,0-2.6-0.4-3.5-1.2s-1.3-1.8-1.3-3c0-1.2,0.5-2.2,1.4-3s2.1-1.2,3.6-1.2c1.2,0,2.2,0.2,3,0.7v1.8
		c-1-0.6-1.9-0.8-2.8-0.8c-0.9,0-1.6,0.2-2.1,0.7s-0.8,1.1-0.8,1.8c0,0.7,0.3,1.3,0.8,1.8S7.8,16,8.7,16c0.4,0,0.8-0.1,1.2-0.2
		s1-0.4,1.7-0.7V16.9z M18.3,17.1c-0.6,0.4-1.3,0.7-2.3,0.7c-1,0-2-0.3-3-0.8v-1.8c0.5,0.4,1,0.6,1.5,0.8s0.9,0.3,1.3,0.3
		c0.8,0,1.2-0.3,1.2-0.8c0-0.2-0.1-0.3-0.2-0.5c-0.2-0.2-0.5-0.3-1.2-0.6s-1.1-0.4-1.5-0.6s-0.7-0.5-0.9-0.8
		c-0.3-0.3-0.4-0.8-0.4-1.3c0-0.7,0.3-1.3,0.9-1.7c0.6-0.4,1.3-0.6,2.3-0.6c0.9,0,1.8,0.2,2.8,0.6v1.6c-1.1-0.5-2-0.7-2.6-0.7
		c-0.4,0-0.7,0.1-0.9,0.2S15,11.3,15,11.5c0,0.2,0.1,0.3,0.2,0.4s0.5,0.3,1.1,0.5s1.1,0.4,1.5,0.6s0.7,0.5,0.9,0.8s0.4,0.8,0.4,1.3
		C19.2,16,18.9,16.6,18.3,17.1z"/>
</g>
</svg>
